<svg xmlns="http://www.w3.org/2000/svg" xmlns:xlink="http://www.w3.org/1999/xlink" width="800" height="521.04"><rect width="800" height="521.04" rx="0" ry="0" class="a"/><svg height="521.04" viewBox="0 0 80 52.104" width="800" xmlns="http://www.w3.org/2000/svg" xmlns:xlink="http://www.w3.org/1999/xlink"><style>@keyframes f{0%{transform:translateX(0)}.1%{transform:translateX(-80px)}12.6%{transform:translateX(-160px)}25.1%{transform:translateX(-240px)}37.6%{transform:translateX(-320px)}50.1%{transform:translateX(-400px)}62.6%{transform:translateX(-480px)}75%{transform:translateX(-560px)}87.5%{transform:translateX(-640px)}to{transform:translateX(-720px)}}.a{fill:#282d35}.c{fill:#b9c0cb;white-space:pre}</style><g font-family="Monaco,Consolas,Menlo,'Bitstream Vera Sans Mono','Powerline Symbols',monospace" font-size="1.67"><defs><symbol id="1"><text y="1.67" class="c">📋</text><text x="3.006" y="1.67" class="c">COMPLETE</text><text x="12.024" y="1.67" class="c">FIX:</text><text x="17.034" y="1.67" class="c">Your</text><text x="22.044" y="1.67" class="c">Action</text><text x="29.058" y="1.67" class="c">Plan</text></symbol><symbol id="2"><text y="1.67" class="c">================================</text></symbol><symbol id="3"><text y="1.67" class="c">Step</text><text x="5.01" y="1.67" class="c">1:</text><text x="8.016" y="1.67" class="c">Patch</text><text x="14.028" y="1.67" class="c">the</text><text x="18.036" y="1.67" class="c">vulnerability</text></symbol><symbol id="4"><text y="1.67" class="c">$</text><text x="2.004" y="1.67" class="c">npx</text><text x="6.012" y="1.67" class="c">@neurolint/cli</text><text x="21.042" y="1.67" class="c">security:cve-2025-55182</text><text x="45.09" y="1.67" class="c">.</text><text x="47.094" y="1.67" class="c">--fix</text></symbol><symbol id="5"><text y="1.67" class="c">✅</text><text x="2.004" y="1.67" class="c">Patched</text></symbol><symbol id="6"><text y="1.67" class="c">Step</text><text x="5.01" y="1.67" class="c">2:</text><text x="8.016" y="1.67" class="c">Install</text><text x="16.032" y="1.67" class="c">patched</text><text x="24.048" y="1.67" class="c">dependencies</text></symbol><symbol id="7"><text y="1.67" class="c">$</text><text x="2.004" y="1.67" class="c">npm</text><text x="6.012" y="1.67" class="c">install</text></symbol><symbol id="8"><text y="1.67" class="c">✅</text><text x="2.004" y="1.67" class="c">Dependencies</text><text x="15.03" y="1.67" class="c">updated</text></symbol><symbol id="9"><text y="1.67" class="c">Step</text><text x="5.01" y="1.67" class="c">3:</text><text x="8.016" y="1.67" class="c">Scan</text><text x="13.026" y="1.67" class="c">for</text><text x="17.034" y="1.67" class="c">existing</text><text x="26.052" y="1.67" class="c">compromise</text></symbol><symbol id="10"><text y="1.67" class="c">$</text><text x="2.004" y="1.67" class="c">npx</text><text x="6.012" y="1.67" class="c">@neurolint/cli</text><text x="21.042" y="1.67" class="c">security:scan-compromise</text><text x="46.092" y="1.67" class="c">.</text><text x="48.096" y="1.67" class="c">--mode=deep</text></symbol><symbol id="11"><text y="1.67" class="c">Scanning...</text></symbol><symbol id="12"><text y="1.67" class="c">✅</text><text x="2.004" y="1.67" class="c">No</text><text x="5.01" y="1.67" class="c">infections</text><text x="16.032" y="1.67" class="c">found</text></symbol><symbol id="13"><text y="1.67" class="c">Step</text><text x="5.01" y="1.67" class="c">4:</text><text x="8.016" y="1.67" class="c">Create</text><text x="15.03" y="1.67" class="c">security</text><text x="24.048" y="1.67" class="c">baseline</text></symbol><symbol id="14"><text y="1.67" class="c">$</text><text x="2.004" y="1.67" class="c">npx</text><text x="6.012" y="1.67" class="c">@neurolint/cli</text><text x="21.042" y="1.67" class="c">security:create-baseline</text><text x="46.092" y="1.67" class="c">.</text></symbol><symbol id="15"><text y="1.67" class="c">✅</text><text x="2.004" y="1.67" class="c">Baseline</text><text x="11.022" y="1.67" class="c">created</text><text x="19.038" y="1.67" class="c">-</text><text x="21.042" y="1.67" class="c">future</text><text x="28.056" y="1.67" class="c">drift</text><text x="34.068" y="1.67" class="c">will</text><text x="39.078" y="1.67" class="c">be</text><text x="42.084" y="1.67" class="c">detected</text></symbol><symbol id="a"><path fill="transparent" d="M0 0h80v25H0z"/></symbol><symbol id="b"><path fill="#6f7683" d="M0 0h1.102v2.171H0z"/></symbol></defs><path class="a" d="M0 0h80v52.104H0z"/><g style="animation-duration:8.011892s;animation-iteration-count:infinite;animation-name:f;animation-timing-function:steps(1,end)"><svg width="800"><svg><use xlink:href="#a"/><use xlink:href="#b" x="-.004"/></svg><svg x="80"><use xlink:href="#a"/><use xlink:href="#b" x="-.004" y="8.659"/><use xlink:href="#1" y="2.171"/><use xlink:href="#2" y="4.342"/></svg><svg x="160"><use xlink:href="#a"/><use xlink:href="#b" x="-.004" y="17.343"/><use xlink:href="#1" y="2.171"/><use xlink:href="#2" y="4.342"/><use xlink:href="#3" y="8.684"/><use xlink:href="#4" y="10.855"/><use xlink:href="#5" y="13.026"/></svg><svg x="240"><use xlink:href="#a"/><use xlink:href="#b" x="-.004" y="26.027"/><use xlink:href="#1" y="2.171"/><use xlink:href="#2" y="4.342"/><use xlink:href="#3" y="8.684"/><use xlink:href="#4" y="10.855"/><use xlink:href="#5" y="13.026"/><use xlink:href="#6" y="17.368"/><use xlink:href="#7" y="19.539"/><use xlink:href="#8" y="21.71"/></svg><svg x="320"><use xlink:href="#a"/><use xlink:href="#b" x="-.004" y="30.369"/><use xlink:href="#1" y="2.171"/><use xlink:href="#2" y="4.342"/><use xlink:href="#3" y="8.684"/><use xlink:href="#4" y="10.855"/><use xlink:href="#5" y="13.026"/><use xlink:href="#6" y="17.368"/><use xlink:href="#7" y="19.539"/><use xlink:href="#8" y="21.71"/><use xlink:href="#9" y="26.052"/><use xlink:href="#10" y="28.223"/></svg><svg x="400"><use xlink:href="#a"/><use xlink:href="#b" x="-.004" y="32.54"/><use xlink:href="#1" y="2.171"/><use xlink:href="#2" y="4.342"/><use xlink:href="#3" y="8.684"/><use xlink:href="#4" y="10.855"/><use xlink:href="#5" y="13.026"/><use xlink:href="#6" y="17.368"/><use xlink:href="#7" y="19.539"/><use xlink:href="#8" y="21.71"/><use xlink:href="#9" y="26.052"/><use xlink:href="#10" y="28.223"/><use xlink:href="#11" y="30.394"/></svg><svg x="480"><use xlink:href="#a"/><use xlink:href="#b" x="-.004" y="36.882"/><use xlink:href="#1" y="2.171"/><use xlink:href="#2" y="4.342"/><use xlink:href="#3" y="8.684"/><use xlink:href="#4" y="10.855"/><use xlink:href="#5" y="13.026"/><use xlink:href="#6" y="17.368"/><use xlink:href="#7" y="19.539"/><use xlink:href="#8" y="21.71"/><use xlink:href="#9" y="26.052"/><use xlink:href="#10" y="28.223"/><use xlink:href="#11" y="30.394"/><use xlink:href="#12" y="32.565"/></svg><svg x="560"><use xlink:href="#a"/><use xlink:href="#b" x="-.004" y="41.224"/><use xlink:href="#1" y="2.171"/><use xlink:href="#2" y="4.342"/><use xlink:href="#3" y="8.684"/><use xlink:href="#4" y="10.855"/><use xlink:href="#5" y="13.026"/><use xlink:href="#6" y="17.368"/><use xlink:href="#7" y="19.539"/><use xlink:href="#8" y="21.71"/><use xlink:href="#9" y="26.052"/><use xlink:href="#10" y="28.223"/><use xlink:href="#11" y="30.394"/><use xlink:href="#12" y="32.565"/><use xlink:href="#13" y="36.907"/><use xlink:href="#14" y="39.078"/></svg><svg x="640"><use xlink:href="#a"/><use xlink:href="#b" x="-.004" y="45.566"/><use xlink:href="#1" y="2.171"/><use xlink:href="#2" y="4.342"/><use xlink:href="#3" y="8.684"/><use xlink:href="#4" y="10.855"/><use xlink:href="#5" y="13.026"/><use xlink:href="#6" y="17.368"/><use xlink:href="#7" y="19.539"/><use xlink:href="#8" y="21.71"/><use xlink:href="#9" y="26.052"/><use xlink:href="#10" y="28.223"/><use xlink:href="#11" y="30.394"/><use xlink:href="#12" y="32.565"/><use xlink:href="#13" y="36.907"/><use xlink:href="#14" y="39.078"/><use xlink:href="#15" y="41.249"/></svg><svg x="720"><use xlink:href="#a"/><use xlink:href="#b" x="-.004" y="52.079"/><use xlink:href="#6" y="2.171"/><use xlink:href="#7" y="4.342"/><use xlink:href="#8" y="6.513"/><use xlink:href="#9" y="10.855"/><use xlink:href="#10" y="13.026"/><use xlink:href="#11" y="15.197"/><use xlink:href="#12" y="17.368"/><use xlink:href="#13" y="21.71"/><use xlink:href="#14" y="23.881"/><use xlink:href="#15" y="26.052"/><text y="32.064" class="c">──────────────────────────────────────────────────</text><text y="34.235" class="c">✅</text><text x="2.004" y="34.235" class="c">COMPLETE</text><text x="11.022" y="34.235" class="c">FIX</text><text x="15.03" y="34.235" class="c">APPLIED</text><text y="38.577" class="c">Your</text><text x="5.01" y="38.577" class="c">application</text><text x="17.034" y="38.577" class="c">is</text><text x="20.04" y="38.577" class="c">now:</text><text x="2.004" y="40.748" class="c">•</text><text x="4.008" y="40.748" class="c">Patched</text><text x="12.024" y="40.748" class="c">against</text><text x="20.04" y="40.748" class="c">CVE-2025-55182</text><text x="2.004" y="42.919" class="c">•</text><text x="4.008" y="42.919" class="c">Scanned</text><text x="12.024" y="42.919" class="c">for</text><text x="16.032" y="42.919" class="c">post-breach</text><text x="28.056" y="42.919" class="c">infections</text><text x="2.004" y="45.09" class="c">•</text><text x="4.008" y="45.09" class="c">Protected</text><text x="14.028" y="45.09" class="c">with</text><text x="19.038" y="45.09" class="c">security</text><text x="28.056" y="45.09" class="c">baseline</text><text y="49.432" class="c">NeuroLint:</text><text x="11.022" y="49.432" class="c">The</text><text x="15.03" y="49.432" class="c">only</text><text x="20.04" y="49.432" class="c">tool</text><text x="25.05" y="49.432" class="c">that</text><text x="30.06" y="49.432" class="c">handles</text><text x="38.076" y="49.432" class="c">BOTH.</text></svg></svg></g></g></svg></svg>